<?xml version="1.0" encoding="UTF-8"?>
<svg width="335" height="136" viewBox="0 0 335 136" fill="none" xmlns="http://www.w3.org/2000/svg" role="img" aria-label="Rubifo logo">
  <path fill="#A855F7" transform="translate(1.078 95.824) scale(0.06152344 -0.06152344)" d="M180 -251L561 0L518 0Q426 1 323 63.5Q220 126 150 236.5Q80 347 80 485Q80 617 145.5 729.5Q211 842 323 908Q435 974 567 974L1057 974L1057 -104L381 -553ZM695 362L695 614L567 614Q533 614 504.5 597Q476 580 459 551Q442 522 442 489Q442 436 478.5 399Q515 362 567 362ZM942 362L1159 362L1222 180L1159 0L942 0Z"/>
  <path fill="#A855F7" transform="translate(72.384 95.824) scale(0.06152344 -0.06152344)" d="M-65 180L0 362L131 362L123 391Q115 417 110 439.5Q105 462 105 488Q105 620 171 732Q237 844 350 909.5Q463 975 595 975L1082 975L1082 0L0 0ZM720 362L720 613L595 613Q561 613 532 596Q503 579 485.5 550.5Q468 522 468 488Q468 454 485.5 425Q503 396 532 379Q561 362 595 362ZM899 362L1186 362L1250 186L1186 0L899 0ZM510 1460L792 1460L792 1184L510 1184Z"/>
  <path fill="#F3F0FF" transform="translate(145.351 95.824) scale(0.06152344 -0.06152344)" d="M-5 0L-65 180L-3 362L0 362Q34 362 63 379Q92 396 109.5 425Q127 454 127 488L127 879L489 969L489 488Q489 436 525.5 399Q562 362 614 362L679 180L614 0Q528 0 449 29.5Q370 59 308 112Q244 59 165.5 29.5Q87 0 0 0ZM334 -479L-244 -479L-244 -204L334 -204Z"/>
  <path fill="#F3F0FF" transform="translate(183.126 95.824) scale(0.06152344 -0.06152344)" d="M-65 180L-1 362L136 362Q189 362 225.5 399Q262 436 262 488L262 879L623 969L623 488Q623 356 557.5 243.5Q492 131 380.5 65.5Q269 0 136 0L-1 0ZM170 -205L452 -205L452 -481L170 -481Z"/>
  <path fill="#F3F0FF" transform="translate(225.023 95.824) scale(0.06152344 -0.06152344)" d="M180 -251L561 0L518 0Q426 1 323 63.5Q220 126 150 236.5Q80 347 80 485Q80 617 145.5 729.5Q211 842 323 908Q435 974 567 974L1057 974L1057 -104L381 -553ZM695 362L695 614L567 614Q533 614 504.5 597Q476 580 459 551Q442 522 442 489Q442 436 478.5 399Q515 362 567 362Z"/>
  <path fill="#F3F0FF" transform="translate(297.190 95.824) scale(0.06152344 -0.06152344)" d="M-63 -250L142 -113L142 877L505 969L505 -306L138 -552Z"/>
</svg>
